HIERARCHY
ROOT Hips
{
 OFFSET 0.000000 0.000000 0.000000
 CHANNELS 6 Xposition Yposition Zposition Yrotation Xrotation Zrotation
 JOINT Chest
 {
  OFFSET 0.000000 9.585900 0.002600
  CHANNELS 3 Yrotation Xrotation Zrotation
  JOINT Chest2
  {
   OFFSET 0.000000 9.601200 -0.005300
   CHANNELS 3 Yrotation Xrotation Zrotation
   JOINT Chest3
   {
    OFFSET 0.000000 9.561800 0.000000
    CHANNELS 3 Yrotation Xrotation Zrotation
    JOINT Chest4
    {
     OFFSET 0.000000 9.552100 0.000000
     CHANNELS 3 Yrotation Xrotation Zrotation
     JOINT Neck
     {
      OFFSET 0.000000 14.453000 0.000000
      CHANNELS 3 Yrotation Xrotation Zrotation
      JOINT Head
      {
       OFFSET 0.000000 8.936500 -0.011300
       CHANNELS 3 Yrotation Xrotation Zrotation
       End Site
       {
        OFFSET 0.000000 17.073600 -0.006000
       }
      }
     }
     JOINT RightCollar
     {
      OFFSET -2.921100 9.558500 0.000000
      CHANNELS 3 Yrotation Xrotation Zrotation
      JOINT RightShoulder
      {
       OFFSET -13.519700 0.000000 0.000000
       CHANNELS 3 Yrotation Xrotation Zrotation
       JOINT RightElbow
       {
        OFFSET 0.000000 -29.696600 0.000000
        CHANNELS 3 Yrotation Xrotation Zrotation
        JOINT RightWrist
        {
         OFFSET 0.000000 -24.004700 0.000000
         CHANNELS 3 Yrotation Xrotation Zrotation
         End Site
         {
          OFFSET 0.000000 -17.728500 0.000000
         }
        }
       }
      }
     }
     JOINT LeftCollar
     {
      OFFSET 2.921100 9.558500 0.000000
      CHANNELS 3 Yrotation Xrotation Zrotation
      JOINT LeftShoulder
      {
       OFFSET 13.519700 0.000000 0.000000
       CHANNELS 3 Yrotation Xrotation Zrotation
       JOINT LeftElbow
       {
        OFFSET 0.000000 -29.696600 0.000000
        CHANNELS 3 Yrotation Xrotation Zrotation
        JOINT LeftWrist
        {
         OFFSET 0.000000 -24.004700 0.000000
         CHANNELS 3 Yrotation Xrotation Zrotation
         End Site
         {
          OFFSET 0.000000 -17.728500 0.000000
         }
        }
       }
      }
     }
    }
   }
  }
 }
 JOINT RightHip
 {
  OFFSET -7.771700 -0.012900 -0.001300
  CHANNELS 3 Yrotation Xrotation Zrotation
  JOINT RightKnee
  {
   OFFSET 0.000000 -40.869800 0.001200
   CHANNELS 3 Yrotation Xrotation Zrotation
   JOINT RightAnkle
   {
    OFFSET 0.000000 -39.717900 0.002100
    CHANNELS 3 Yrotation Xrotation Zrotation
    JOINT RightToe
    {
     OFFSET 0.000000 -4.965400 11.033500
     CHANNELS 3 Yrotation Xrotation Zrotation
     End Site
     {
      OFFSET 0.000000 -1.423100 5.872300
     }
    }
   }
  }
 }
 JOINT LeftHip
 {
  OFFSET 7.771700 -0.012900 -0.001300
  CHANNELS 3 Yrotation Xrotation Zrotation
  JOINT LeftKnee
  {
   OFFSET 0.000000 -40.869800 0.001200
   CHANNELS 3 Yrotation Xrotation Zrotation
   JOINT LeftAnkle
   {
    OFFSET 0.000000 -39.717900 0.002100
    CHANNELS 3 Yrotation Xrotation Zrotation
    JOINT LeftToe
    {
     OFFSET 0.000000 -4.965400 11.033500
     CHANNELS 3 Yrotation Xrotation Zrotation
     End Site
     {
      OFFSET 0.000000 -1.423100 5.872300
     }
    }
   }
  }
 }
}
MOTION
Frames: 12
Frame Time: 0.008333
0.000000 85.388000 0.000000 0.000000 -5.767877 0.000000 0.000000 11.653817 0.000000 0.000000 -5.885947 0.000000 0.000000 -0.000000 0.000000 0.000000 -0.000000 0.000000 0.000000 12.528835 0.000000 0.000000 0.711642 0.000000 0.000000 -0.000000 0.000000 0.000000 0.000000 -90.000000 0.000000 -2.309062 0.000000 0.000000 2.309062 0.000000 0.000000 -0.000000 0.000000 0.000000 -0.000000 90.000000 0.000000 -2.309062 0.000000 0.000000 2.309062 0.000000 0.000000 8.520406 0.000000 0.000000 1.905762 0.000000 -0.000000 -4.658285 0.000000 0.000000 -0.000000 0.000000 0.000000 8.520406 0.000000 0.000000 1.905762 0.000000 -0.000000 -4.658285 0.000000 0.000000 -0.000000 0.000000
-2.706494 52.235930 33.313175 169.957981 -37.317289 -1.538422 4.737493 23.975028 2.992210 0.552172 3.646782 0.480665 0.965994 6.012561 0.830134 3.596488 19.909545 3.223694 0.093081 14.167559 -2.187710 1.018470 -9.451213 -4.151096 -5.118555 -0.767420 -3.992830 -5.426846 -6.201559 2.189939 -85.429072 -31.652794 124.948264 -10.937581 4.272466 29.131535 -6.038151 -0.579737 -0.140945 10.063276 -9.827324 3.232127 78.741102 -24.385351 -128.174090 24.622272 -8.280247 -9.024161 -4.293083 -43.606334 3.029379 -154.900100 85.325429 -149.796401 1.689922 -11.876538 -4.251992 0.387449 -0.694748 0.168441 0.773800 -40.336942 5.861382 73.684485 83.796261 63.578211 -5.078754 -13.318599 9.848512 0.182863 1.395604 0.090355
-2.704361 52.236951 33.311404 169.944482 -37.367207 -1.549555 4.775444 24.047017 3.030524 0.571423 3.699015 0.493392 0.969768 6.055302 0.840326 3.618530 19.966334 3.249738 0.109998 14.218822 -2.138962 1.029717 -9.356932 -4.064424 -5.105692 -0.735073 -3.988683 -5.378340 -6.220580 2.235534 -85.473428 -31.766513 124.643820 -11.047691 4.138724 28.482135 -6.077466 -0.541550 -0.109885 10.073872 -9.893347 3.118421 78.687105 -24.298397 -127.836133 24.497032 -8.281316 -8.942936 -4.292245 -43.554117 3.039883 -154.942193 85.329738 -149.827387 1.721065 -11.871540 -4.249597 0.359410 -0.692916 0.154104 0.775361 -40.292492 5.867718 73.789556 83.779859 63.696518 -5.039410 -13.292805 9.842835 0.149102 1.361337 0.076259
-2.704799 52.236340 33.311413 169.942586 -37.405540 -1.555925 4.806120 24.132827 3.063870 0.594178 3.784423 0.514090 0.959062 6.039760 0.836074 3.639971 20.023217 3.274787 0.127719 14.266436 -2.090070 1.042562 -9.269359 -3.977959 -5.094165 -0.704171 -3.985376 -5.342083 -6.235239 2.283517 -85.516175 -31.901308 124.339207 -11.120912 4.030233 27.968225 -6.116757 -0.492198 -0.084556 10.076189 -9.956641 3.028880 78.728043 -24.310737 -127.541724 24.365665 -8.233936 -8.878035 -4.293703 -43.514894 3.042386 -154.924987 85.332393 -149.800220 1.718403 -11.864637 -4.256991 0.366089 -0.695905 0.154204 0.773206 -40.256204 5.865328 73.880267 83.763437 63.796313 -5.042747 -13.300545 9.836812 0.147046 1.365974 0.073416
-2.705887 52.236819 33.310248 169.948510 -37.455524 -1.563677 4.828933 24.227747 3.094614 0.601470 3.832718 0.523882 0.961235 6.063299 0.840539 3.659494 20.079120 3.297483 0.148071 14.310158 -2.040328 1.060255 -9.188853 -3.891162 -5.086728 -0.669841 -3.977853 -5.306682 -6.251435 2.327854 -85.553113 -32.050182 124.031204 -11.160714 3.940117 27.591320 -6.152103 -0.431238 -0.064674 10.062934 -10.019108 2.968615 78.855545 -24.411144 -127.295879 24.232003 -8.166126 -8.763371 -4.292556 -43.460934 3.038349 -154.795841 85.334081 -149.660900 1.710750 -11.850906 -4.269169 0.384028 -0.706911 0.163916 0.769998 -40.203870 5.859749 74.033894 83.732605 63.969878 -5.114359 -13.340212 9.809637 0.190636 1.405989 0.093323
-2.706882 52.236037 33.311435 169.948541 -37.491176 -1.572890 4.851665 24.310261 3.126882 0.606254 3.859719 0.526224 0.969262 6.103944 0.849074 3.676778 20.132969 3.317759 0.171466 14.351327 -1.989527 1.083460 -9.112946 -3.803649 -5.084640 -0.627669 -3.964169 -5.268618 -6.274357 2.366984 -85.580310 -32.198340 123.719618 -11.164937 3.869396 27.326037 -6.185312 -0.361867 -0.046674 10.039301 -10.078088 2.937275 79.037627 -24.563757 -127.096597 24.091073 -8.089263 -8.580173 -4.292701 -43.423487 3.043805 -154.687420 85.335350 -149.545741 1.719353 -11.846138 -4.269944 0.380603 -0.701717 0.163844 0.762737 -40.169326 5.866264 74.086859 83.721595 64.025574 -5.120644 -13.347102 9.800847 0.200090 1.412142 0.097878
-2.709294 52.234096 33.314752 169.950798 -37.510871 -1.579630 4.885359 24.425547 3.161358 0.598293 3.837179 0.521911 0.976775 6.142645 0.856626 3.692662 20.184152 3.335209 0.197620 14.390802 -1.936484 1.111002 -9.040328 -3.712899 -5.085123 -0.576920 -3.943802 -5.230365 -6.303087 2.401329 -85.590508 -32.335186 123.408456 -11.141842 3.814191 27.131531 -6.218269 -0.287907 -0.024729 10.009225 -10.132361 2.933630 79.237440 -24.727099 -126.936865 23.943909 -8.006145 -8.336894 -4.290387 -43.405952 3.044408 -154.562199 85.334347 -149.413186 1.728261 -11.837639 -4.270145 0.376957 -0.700281 0.163748 0.752592 -40.154191 5.869522 74.150643 83.711388 64.089403 -5.130396 -13.345470 9.792917 0.210371 1.413323 0.102589
-2.712491 52.233080 33.317743 169.951822 -37.533335 -1.582906 4.894680 24.472279 3.170676 0.607256 3.886135 0.525380 0.984052 6.180265 0.863229 3.707795 20.233846 3.349623 0.226352 14.428045 -1.880227 1.142219 -8.971888 -3.617098 -5.082781 -0.523604 -3.915255 -5.193803 -6.330955 2.427684 -85.578733 -32.457444 123.104299 -11.109392 3.768433 26.970547 -6.248463 -0.212551 0.002578 9.976739 -10.181835 2.954770 79.412995 -24.870163 -126.804642 23.798538 -7.924600 -8.076997 -4.281181 -43.382493 3.033114 -154.478276 85.337000 -149.317209 1.744514 -11.835425 -4.274519 0.368892 -0.693497 0.162652 0.741340 -40.133458 5.864407 74.190947 83.696361 64.134698 -5.141359 -13.348476 9.776742 0.219030 1.420516 0.107826
-2.714726 52.232831 33.321105 169.955544 -37.555790 -1.595709 4.910817 24.550618 3.186658 0.609669 3.898303 0.529379 0.991479 6.217570 0.869263 3.723117 20.283079 3.362052 0.257145 14.463558 -1.821467 1.176553 -8.906496 -3.517512 -5.076199 -0.472168 -3.881648 -5.157704 -6.349874 2.446694 -85.551958 -32.564413 122.811840 -11.081108 3.736623 26.821470 -6.275995 -0.136988 0.029920 9.951515 -10.222061 2.994357 79.525824 -24.972040 -126.686474 23.649917 -7.846185 -7.876544 -4.290458 -43.357669 3.044140 -154.347490 85.340895 -149.182734 1.752560 -11.827559 -4.279285 0.365208 -0.692378 0.164384 0.716946 -40.114854 5.864616 74.230596 83.674599 64.192957 -5.161699 -13.344207 9.738504 0.250013 1.426375 0.122216
-2.717277 52.234779 33.322654 169.964396 -37.592575 -1.609020 4.918411 24.637265 3.198040 0.609121 3.880578 0.533533 1.002842 6.284285 0.874909 3.740238 20.330408 3.373231 0.288537 14.498698 -1.760158 1.211121 -8.841860 -3.413522 -5.070384 -0.421002 -3.847797 -5.118274 -6.352280 2.464365 -85.516224 -32.656410 122.534733 -11.060308 3.719408 26.672098 -6.305541 -0.061740 0.057525 9.937333 -10.247293 3.044874 79.565433 -25.029272 -126.569977 23.500160 -7.765599 -7.801805 -4.300529 -43.314869 3.049909 -154.272753 85.348463 -149.105073 1.754173 -11.821622 -4.284066 0.362874 -0.692325 0.166015 0.676557 -40.085878 5.863497 74.353774 83.650046 64.316765 -5.136993 -13.319522 9.717441 0.233401 1.403854 0.116967
-2.720387 52.234796 33.327715 169.965562 -37.604235 -1.618418 4.927351 24.684726 3.206499 0.615439 3.918809 0.536737 1.010347 6.302556 0.880072 3.759187 20.374327 3.384301 0.319060 14.534711 -1.696178 1.243003 -8.775827 -3.304231 -5.068639 -0.369873 -3.815981 -5.071592 -6.333575 2.482393 -85.470753 -32.734889 122.274011 -11.046417 3.708248 26.517226 -6.338689 0.011208 0.087502 9.928071 -10.254972 3.103631 79.551876 -25.059617 -126.447780 23.367747 -7.681338 -7.863311 -4.308488 -43.300710 3.058333 -154.198174 85.359199 -149.027354 1.759003 -11.814150 -4.287777 0.358260 -0.688593 0.165138 0.662666 -40.077426 5.866788 74.352657 83.639544 64.323346 -5.149594 -13.312924 9.699089 0.252535 1.406765 0.125188
-2.721845 52.236072 33.332324 169.950159 -37.623400 -1.626844 4.953882 24.736208 3.225221 0.623286 3.954959 0.539989 1.016087 6.319455 0.885291 3.778288 20.415116 3.395839 0.348849 14.572447 -1.630543 1.272854 -8.706647 -3.191466 -5.067196 -0.320458 -3.788336 -5.016472 -6.294387 2.499117 -85.419625 -32.803015 122.030619 -11.041078 3.700226 26.356112 -6.370532 0.082381 0.118651 9.917213 -10.248138 3.169885 79.512938 -25.083548 -126.321173 23.260555 -7.587938 -8.009358 -4.312614 -43.280298 3.085743 -153.960936 85.364591 -148.791749 1.767615 -11.794218 -4.288533 0.357092 -0.694243 0.166026 0.655016 -40.060558 5.881984 74.371868 83.628284 64.349390 -5.155170 -13.307332 9.685382 0.256679 1.405944 0.127337
